<?xml version="1.0" standalone="no"?>
<!DOCTYPE svg PUBLIC "-//W3C//DTD SVG 20010904//EN"
 "http://www.w3.org/TR/2001/REC-SVG-20010904/DTD/svg10.dtd">
<svg version="1.0" xmlns="http://www.w3.org/2000/svg"
 width="512.000000pt" height="512.000000pt" viewBox="0 0 512.000000 512.000000"
 preserveAspectRatio="xMidYMid meet">

<g transform="translate(0.000000,512.000000) scale(0.100000,-0.100000)"
fill="#4DD0E1" stroke="none">
<path d="M240 5027 c-19 -6 -58 -34 -85 -62 -71 -70 -91 -145 -63 -239 16 -55
99 -138 154 -154 94 -28 169 -8 239 63 98 97 101 222 8 325 -65 72 -158 97
-253 67z m135 -172 c50 -49 15 -135 -55 -135 -41 0 -80 39 -80 80 0 41 39 80
80 80 19 0 40 -9 55 -25z"/>
<path d="M2480 4640 l0 -400 560 0 560 0 0 160 0 160 80 0 80 0 0 -160 0 -160
560 0 560 0 0 400 0 400 -560 0 -560 0 0 -160 0 -160 -80 0 -80 0 0 160 0 160
-560 0 -560 0 0 -400z m960 0 l0 -240 -400 0 -400 0 0 240 0 240 400 0 400 0
0 -240z m1280 0 l0 -240 -400 0 -400 0 0 240 0 240 400 0 400 0 0 -240z"/>
<path d="M2800 4640 l0 -80 80 0 80 0 0 80 0 80 -80 0 -80 0 0 -80z"/>
<path d="M3120 4640 l0 -80 80 0 80 0 0 80 0 80 -80 0 -80 0 0 -80z"/>
<path d="M4080 4640 l0 -80 80 0 80 0 0 80 0 80 -80 0 -80 0 0 -80z"/>
<path d="M4400 4640 l0 -80 80 0 80 0 0 80 0 80 -80 0 -80 0 0 -80z"/>
<path d="M2000 4867 c-49 -16 -133 -102 -148 -153 -28 -94 -8 -169 63 -239 51
-52 102 -75 165 -75 63 0 114 23 165 75 98 97 101 222 8 325 -65 72 -158 97
-253 67z m135 -172 c50 -49 15 -135 -55 -135 -41 0 -80 39 -80 80 0 41 39 80
80 80 19 0 40 -9 55 -25z"/>
<path d="M1360 4440 l0 -280 -160 0 -160 0 0 -280 0 -280 80 0 80 0 0 200 0
200 160 0 160 0 0 280 0 280 80 0 80 0 0 80 0 80 -160 0 -160 0 0 -280z"/>
<path d="M240 4160 l0 -320 240 0 240 0 0 -120 0 -120 80 0 80 0 0 200 0 200
-240 0 -240 0 0 240 0 240 -80 0 -80 0 0 -320z"/>
<path d="M4240 3520 l0 -560 80 0 80 0 0 560 0 560 -80 0 -80 0 0 -560z"/>
<path d="M4720 3760 l0 -320 80 0 80 0 0 320 0 320 -80 0 -80 0 0 -320z"/>
<path d="M1680 3761 l0 -159 -35 -6 c-51 -10 -103 -60 -117 -112 l-12 -44
-158 0 -158 0 0 -80 0 -80 160 0 160 0 0 -80 0 -80 -160 0 -160 0 0 -80 0 -80
160 0 160 0 0 -80 0 -80 -160 0 -160 0 0 -80 0 -80 160 0 160 0 0 -80 0 -80
-160 0 -160 0 0 -80 0 -80 160 0 160 0 0 -80 0 -80 -160 0 -160 0 0 -80 0 -80
160 0 160 0 0 -80 0 -80 -160 0 -160 0 0 -80 0 -80 159 0 159 0 6 -35 c10 -51
60 -103 112 -117 l44 -12 0 -158 0 -158 80 0 80 0 0 160 0 160 80 0 80 0 0
-160 0 -160 80 0 80 0 0 160 0 160 80 0 80 0 0 -160 0 -160 80 0 80 0 0 160 0
160 80 0 80 0 0 -160 0 -160 80 0 80 0 0 160 0 160 80 0 80 0 0 -160 0 -160
80 0 80 0 0 160 0 160 80 0 80 0 0 -160 0 -160 80 0 80 0 0 159 0 159 35 6
c51 10 103 60 117 112 l12 44 158 0 158 0 0 80 0 80 -160 0 -160 0 0 80 0 80
160 0 160 0 0 80 0 80 -160 0 -160 0 0 80 0 80 160 0 160 0 0 80 0 80 -160 0
-160 0 0 80 0 80 160 0 160 0 0 80 0 80 -160 0 -160 0 0 80 0 80 160 0 160 0
0 80 0 80 -160 0 -160 0 0 80 0 80 160 0 160 0 0 80 0 80 -158 0 -158 0 -12
44 c-14 52 -66 102 -117 112 l-35 6 0 159 0 159 -80 0 -80 0 0 -160 0 -160
-80 0 -80 0 0 160 0 160 -80 0 -80 0 0 -160 0 -160 -80 0 -80 0 0 160 0 160
-80 0 -80 0 0 -160 0 -160 -80 0 -80 0 0 160 0 160 -80 0 -80 0 0 -160 0 -160
-80 0 -80 0 0 160 0 160 -80 0 -80 0 0 -160 0 -160 -80 0 -80 0 0 160 0 160
-80 0 -80 0 0 -159z m1760 -1201 l0 -880 -880 0 -880 0 0 880 0 880 880 0 880
0 0 -880z"/>
<path d="M2960 3267 c-49 -16 -133 -102 -148 -153 -28 -94 -8 -169 63 -239 51
-52 102 -75 165 -75 63 0 114 23 165 75 98 97 101 222 8 325 -65 72 -158 97
-253 67z m135 -172 c16 -15 25 -36 25 -55 0 -19 -9 -40 -25 -55 -15 -16 -36
-25 -55 -25 -19 0 -40 9 -55 25 -16 15 -25 36 -25 55 0 19 9 40 25 55 15 16
36 25 55 25 19 0 40 -9 55 -25z"/>
<path d="M2000 2800 l0 -320 80 0 80 0 0 240 0 240 240 0 240 0 0 80 0 80
-320 0 -320 0 0 -320z"/>
<path d="M2960 2400 l0 -240 -240 0 -240 0 0 -80 0 -80 320 0 320 0 0 320 0
320 -80 0 -80 0 0 -240z"/>
<path d="M2000 2307 c-49 -16 -133 -102 -148 -153 -28 -94 -8 -169 63 -239
101 -102 229 -102 330 0 98 97 101 222 8 325 -65 72 -158 97 -253 67z m135
-172 c50 -49 15 -135 -55 -135 -19 0 -40 9 -55 25 -16 15 -25 36 -25 55 0 19
9 40 25 55 15 16 36 25 55 25 19 0 40 -9 55 -25z"/>
<path d="M720 3320 l0 -120 -240 0 -240 0 0 -600 0 -600 80 0 80 0 0 520 0
520 240 0 240 0 0 200 0 200 -80 0 -80 0 0 -120z"/>
<path d="M4720 3267 c-49 -16 -133 -102 -148 -153 -28 -94 -8 -169 63 -239 51
-52 102 -75 165 -75 63 0 114 23 165 75 98 97 101 222 8 325 -65 72 -158 97
-253 67z m135 -172 c16 -15 25 -36 25 -55 0 -19 -9 -40 -25 -55 -15 -16 -36
-25 -55 -25 -19 0 -40 9 -55 25 -16 15 -25 36 -25 55 0 19 9 40 25 55 15 16
36 25 55 25 19 0 40 -9 55 -25z"/>
<path d="M720 2867 c-49 -16 -133 -102 -148 -153 -28 -94 -8 -169 63 -239 101
-102 229 -102 330 0 98 97 101 222 8 325 -65 72 -158 97 -253 67z m135 -172
c50 -49 15 -135 -55 -135 -41 0 -80 39 -80 80 0 41 39 80 80 80 19 0 40 -9 55
-25z"/>
<path d="M4240 2787 c-49 -16 -133 -102 -148 -153 -28 -94 -8 -169 63 -239 70
-71 146 -91 237 -63 48 14 121 76 138 118 l12 30 89 0 89 0 0 -880 0 -880 80
0 80 0 0 960 0 960 -169 0 -169 0 -12 30 c-17 42 -90 104 -138 118 -47 14
-105 14 -152 -1z m135 -172 c50 -49 15 -135 -55 -135 -41 0 -80 39 -80 80 0
19 9 40 25 55 15 16 36 25 55 25 19 0 40 -9 55 -25z"/>
<path d="M720 1840 l0 -400 80 0 80 0 0 400 0 400 -80 0 -80 0 0 -400z"/>
<path d="M4240 1440 l0 -720 -800 0 -800 0 0 -80 0 -80 880 0 880 0 0 800 0
800 -80 0 -80 0 0 -720z"/>
<path d="M240 1827 c-49 -16 -133 -102 -148 -153 -28 -94 -8 -169 63 -239 101
-102 229 -102 330 0 98 97 101 222 8 325 -65 72 -158 97 -253 67z m135 -172
c50 -49 15 -135 -55 -135 -41 0 -80 39 -80 80 0 41 39 80 80 80 19 0 40 -9 55
-25z"/>
<path d="M240 1120 l0 -80 -80 0 -80 0 0 -400 0 -400 80 0 80 0 0 -80 0 -80
80 0 80 0 0 80 0 80 80 0 80 0 0 -80 0 -80 80 0 80 0 0 80 0 80 80 0 80 0 0
-80 0 -80 80 0 80 0 0 80 0 80 80 0 80 0 0 400 0 400 -80 0 -80 0 0 80 0 80
-80 0 -80 0 0 -80 0 -80 -80 0 -80 0 0 80 0 80 -80 0 -80 0 0 -80 0 -80 -80 0
-80 0 0 80 0 80 -80 0 -80 0 0 -80z m800 -480 l0 -240 -400 0 -400 0 0 240 0
240 400 0 400 0 0 -240z"/>
<path d="M400 640 l0 -80 80 0 80 0 0 80 0 80 -80 0 -80 0 0 -80z"/>
<path d="M720 640 l0 -80 80 0 80 0 0 80 0 80 -80 0 -80 0 0 -80z"/>
<path d="M1520 867 c-49 -16 -133 -102 -148 -153 -28 -94 -8 -169 63 -239 101
-102 229 -102 330 0 98 97 101 222 8 325 -65 72 -158 97 -253 67z m135 -172
c50 -49 15 -135 -55 -135 -41 0 -80 39 -80 80 0 19 9 40 25 55 15 16 36 25 55
25 19 0 40 -9 55 -25z"/>
<path d="M2160 867 c-49 -16 -133 -102 -148 -153 -28 -94 -8 -169 63 -239 101
-102 229 -102 330 0 98 97 101 222 8 325 -65 72 -158 97 -253 67z m135 -172
c50 -49 15 -135 -55 -135 -41 0 -80 39 -80 80 0 19 9 40 25 55 15 16 36 25 55
25 19 0 40 -9 55 -25z"/>
<path d="M4720 547 c-49 -16 -133 -102 -148 -153 -28 -94 -8 -169 63 -239 70
-71 145 -91 239 -63 55 16 138 99 154 154 26 89 9 163 -55 234 -65 72 -158 97
-253 67z m135 -172 c50 -49 15 -135 -55 -135 -41 0 -80 39 -80 80 0 41 39 80
80 80 19 0 40 -9 55 -25z"/>
<path d="M3280 320 l0 -80 560 0 560 0 0 80 0 80 -560 0 -560 0 0 -80z"/>
</g>
</svg>
