<?xml version="1.0" standalone="no"?>
<!DOCTYPE svg PUBLIC "-//W3C//DTD SVG 20010904//EN"
 "http://www.w3.org/TR/2001/REC-SVG-20010904/DTD/svg10.dtd">
<svg version="1.0" xmlns="http://www.w3.org/2000/svg"
 width="512.000000pt" height="512.000000pt" viewBox="0 0 512.000000 512.000000"
 preserveAspectRatio="xMidYMid meet">

<g transform="translate(0.000000,512.000000) scale(0.100000,-0.100000)"
fill="#4DD0E1" stroke="none">
<path d="M2744 4690 c-343 -45 -654 -226 -860 -499 -35 -48 -83 -122 -106
-166 -22 -44 -42 -81 -43 -82 -1 -2 -26 4 -56 13 -73 22 -217 22 -294 -1 -194
-55 -339 -206 -393 -405 l-17 -65 -67 -12 c-328 -59 -629 -286 -784 -591 -277
-543 -66 -1208 474 -1490 200 -104 335 -132 650 -132 l212 0 0 75 0 75 -209 0
c-293 0 -413 23 -584 114 -366 192 -572 607 -502 1010 73 421 404 744 815 797
164 21 153 17 147 46 -8 45 10 150 36 207 64 139 175 218 337 240 67 9 145 -9
234 -54 44 -22 80 -39 81 -37 0 1 18 45 38 98 109 279 327 505 606 625 416
180 909 89 1230 -227 102 -100 165 -188 227 -314 75 -153 104 -267 111 -432 7
-149 -1 -137 98 -148 196 -21 388 -113 544 -260 393 -372 400 -997 17 -1381
-143 -142 -325 -237 -514 -267 l-74 -12 6 -50 c3 -27 6 -61 6 -74 0 -23 2 -23
61 -17 140 16 329 91 470 187 81 55 212 185 272 271 260 367 274 851 36 1237
-63 101 -205 252 -301 318 -125 86 -263 148 -398 179 -69 15 -70 16 -70 48 0
56 -29 206 -56 291 -132 413 -463 730 -889 851 -132 38 -347 52 -491 34z"/>
<path d="M4591 2911 c-59 -52 -59 -47 -5 -118 l32 -42 58 36 c33 20 61 38 63
40 5 3 -38 67 -71 105 l-23 27 -54 -48z"/>
<path d="M4722 2700 c-41 -19 -62 -34 -58 -42 2 -7 12 -36 21 -64 l15 -51 70
15 c51 11 70 20 70 31 0 21 -42 141 -49 141 -3 -1 -35 -14 -69 -30z"/>
<path d="M1525 2183 l-406 -498 231 -3 230 -2 0 -615 0 -615 355 0 355 0 0
615 0 615 231 0 c127 0 229 4 227 9 -6 15 -803 990 -810 991 -4 0 -190 -224
-413 -497z m664 -43 c133 -162 241 -298 241 -302 0 -5 -65 -8 -145 -8 l-145 0
0 -615 0 -615 -205 0 -205 0 0 615 0 615 -146 0 c-80 0 -144 4 -142 9 9 24
494 609 500 603 4 -4 115 -140 247 -302z"/>
<path d="M1890 1645 l0 -75 75 0 75 0 0 75 0 75 -75 0 -75 0 0 -75z"/>
<path d="M1890 1395 l0 -75 75 0 75 0 0 75 0 75 -75 0 -75 0 0 -75z"/>
<path d="M1890 1000 l0 -220 75 0 75 0 0 220 0 220 -75 0 -75 0 0 -220z"/>
<path d="M2830 2025 l0 -615 -231 -2 -230 -3 403 -494 c222 -272 407 -495 411
-495 4 -1 189 222 411 494 l404 495 -229 3 -229 2 0 615 0 615 -355 0 -355 0
0 -615z m560 -150 l0 -614 146 -3 146 -3 -246 -302 c-136 -167 -250 -303 -254
-302 -4 0 -118 137 -254 305 l-248 304 150 0 150 0 0 615 0 615 205 0 205 0 0
-615z"/>
<path d="M3140 2245 l0 -75 75 0 75 0 0 75 0 75 -75 0 -75 0 0 -75z"/>
<path d="M3140 1995 l0 -75 75 0 75 0 0 75 0 75 -75 0 -75 0 0 -75z"/>
<path d="M3140 1625 l0 -195 75 0 75 0 0 195 0 195 -75 0 -75 0 0 -195z"/>
<path d="M4780 2461 l-55 -6 -7 -106 c-8 -124 -40 -234 -95 -329 -48 -83 -179
-214 -263 -263 -77 -44 -192 -83 -278 -93 l-62 -7 0 -73 c0 -87 -7 -84 135
-59 354 62 639 347 700 702 20 114 17 237 -5 239 -8 0 -40 -2 -70 -5z"/>
</g>
</svg>
