<?xml version="1.0" standalone="no"?>
<!DOCTYPE svg PUBLIC "-//W3C//DTD SVG 20010904//EN"
 "http://www.w3.org/TR/2001/REC-SVG-20010904/DTD/svg10.dtd">
<svg version="1.0" xmlns="http://www.w3.org/2000/svg"
 width="512.000000pt" height="512.000000pt" viewBox="0 0 512.000000 512.000000"
 preserveAspectRatio="xMidYMid meet">

<g transform="translate(0.000000,512.000000) scale(0.100000,-0.100000)"
fill="#4DD0E1" stroke="none">
<path d="M3125 4949 c-403 -58 -757 -345 -895 -726 l-22 -62 -72 55 c-355 271
-849 237 -1161 -80 -201 -203 -292 -499 -240 -772 8 -43 14 -79 12 -80 -1 -2
-36 -10 -77 -18 -293 -61 -510 -328 -510 -626 0 -241 142 -465 361 -573 87
-42 95 -50 111 -89 24 -57 23 -58 -15 -58 -18 0 -59 -7 -92 -15 -172 -45 -305
-179 -350 -352 -65 -249 94 -511 350 -578 48 -12 127 -15 407 -15 l348 0 0
-215 c0 -216 0 -216 -25 -240 l-24 -25 -304 0 -305 0 -12 30 c-28 68 -129 130
-212 130 -125 0 -238 -113 -238 -240 0 -127 113 -240 238 -240 83 0 184 62
212 130 l12 30 306 0 c210 0 317 4 346 12 55 16 138 99 154 154 8 27 12 117
12 258 l0 216 520 0 520 0 0 -136 c0 -78 5 -154 12 -178 16 -55 99 -138 154
-154 31 -9 231 -12 786 -12 l746 0 12 -30 c7 -17 32 -48 56 -69 97 -85 228
-80 321 11 178 175 0 467 -241 396 -45 -13 -146 -105 -146 -132 0 -14 -76 -16
-745 -16 l-746 0 -24 25 c-24 23 -25 29 -25 160 l0 135 388 0 c316 0 399 3
447 15 256 67 415 329 350 580 -48 184 -190 316 -386 359 -25 6 -26 7 -16 46
l11 40 283 0 283 0 0 -296 c0 -204 4 -310 12 -338 16 -55 99 -138 154 -154 24
-7 102 -12 187 -12 138 0 146 -1 152 -21 21 -64 133 -139 209 -139 130 0 246
113 246 240 0 125 -114 240 -238 240 -83 0 -184 -62 -212 -130 l-12 -30 -145
0 c-139 0 -145 1 -168 25 l-25 24 0 296 0 295 113 0 c217 1 364 56 497 190
253 252 253 647 0 901 -121 122 -281 188 -453 189 l-67 0 31 63 c122 240 149
519 78 794 -27 106 -115 283 -189 381 -238 317 -653 487 -1045 431z m318 -164
c117 -20 238 -66 338 -127 111 -68 249 -206 317 -317 201 -329 186 -746 -38
-1058 -47 -66 -51 -103 -15 -138 23 -24 28 -25 177 -25 228 0 333 -35 441
-149 256 -268 131 -702 -230 -796 -47 -12 -143 -15 -529 -15 l-471 0 -27 83
c-42 130 -112 233 -219 324 -43 36 -158 101 -209 117 -15 4 -18 17 -18 73 0
82 -15 108 -71 123 -22 6 -39 14 -37 18 29 54 37 83 29 104 -12 30 -260 274
-286 282 -12 3 -38 -3 -60 -14 -41 -21 -55 -15 -55 23 0 10 -11 29 -25 42 -24
25 -26 25 -215 25 -189 0 -191 0 -215 -25 -14 -13 -25 -32 -25 -42 0 -38 -14
-44 -55 -23 -22 11 -48 17 -60 14 -11 -3 -50 -35 -86 -71 l-66 -64 -74 21
c-230 65 -500 19 -709 -121 -239 -160 -372 -401 -387 -701 -3 -65 -10 -118
-14 -118 -5 0 -38 28 -74 61 -321 301 -104 829 341 829 56 0 77 4 97 20 40 31
41 52 7 149 -70 204 -43 433 71 612 219 342 664 440 1001 220 41 -27 107 -84
150 -131 65 -70 82 -83 108 -83 49 0 74 35 94 133 21 99 63 207 120 304 52 89
200 240 292 299 208 134 448 184 687 142z m-1092 -1640 c23 -103 67 -124 159
-74 l60 34 67 -68 68 -67 -34 -60 c-50 -92 -29 -136 74 -159 l55 -12 0 -99 0
-99 -55 -12 c-103 -23 -124 -67 -74 -159 l34 -60 -68 -67 -67 -68 -60 34 c-92
50 -136 29 -159 -74 l-12 -55 -99 0 -99 0 -12 55 c-23 103 -67 124 -159 74
l-60 -34 -67 68 -68 67 34 60 c50 92 29 136 -74 159 l-55 12 0 99 0 99 55 12
c103 23 124 67 74 159 l-34 60 68 67 67 68 60 -34 c92 -50 136 -29 159 74 l12
55 99 0 99 0 12 -55z m-768 -120 c12 -5 17 -18 17 -44 0 -20 7 -47 16 -60 14
-19 14 -25 3 -32 -8 -5 -22 -9 -32 -9 -10 0 -29 -11 -42 -25 -25 -24 -25 -26
-25 -215 0 -189 0 -191 25 -215 13 -14 32 -25 42 -25 38 0 44 -14 23 -55 -11
-22 -17 -48 -14 -60 8 -26 252 -274 282 -286 21 -8 50 0 104 29 4 2 12 -15 18
-37 18 -68 30 -71 240 -71 210 0 222 3 240 71 6 22 14 39 18 37 54 -29 83 -37
104 -29 30 12 274 260 282 286 3 12 -3 38 -14 60 -21 41 -15 55 23 55 31 0 67
45 67 85 l0 36 52 -28 c117 -62 221 -201 253 -334 23 -97 19 -126 -25 -218
-45 -93 -48 -118 -21 -152 17 -21 30 -24 122 -30 158 -10 237 -55 300 -171 31
-58 34 -70 34 -148 0 -78 -3 -90 -34 -148 -38 -70 -69 -100 -145 -140 l-51
-27 -1445 0 -1445 0 -63 34 c-69 38 -110 80 -144 151 -32 66 -31 196 2 265 31
64 91 124 155 154 43 21 70 25 193 30 136 6 145 7 163 30 29 35 23 70 -21 136
-146 218 -158 497 -32 740 50 97 191 237 287 287 77 39 151 65 223 78 52 10
237 6 265 -5z m3192 -1690 c50 -49 15 -135 -55 -135 -41 0 -80 39 -80 80 0 41
39 80 80 80 19 0 40 -9 55 -25z m-320 -720 c50 -49 15 -135 -55 -135 -41 0
-80 39 -80 80 0 41 39 80 80 80 19 0 40 -9 55 -25z m-4000 -160 c16 -15 25
-36 25 -55 0 -19 -9 -40 -25 -55 -15 -16 -36 -25 -55 -25 -19 0 -40 9 -55 25
-16 15 -25 36 -25 55 0 19 9 40 25 55 15 16 36 25 55 25 19 0 40 -9 55 -25z"/>
<path d="M3073 4545 c-13 -9 -27 -33 -33 -55 l-10 -39 -44 20 c-33 14 -50 17
-68 10 -30 -12 -274 -260 -282 -286 -3 -12 3 -38 14 -60 21 -41 15 -55 -23
-55 -10 0 -29 -11 -42 -25 -25 -24 -25 -26 -25 -215 0 -189 0 -191 25 -215 13
-14 32 -25 42 -25 38 0 44 -14 23 -55 -11 -22 -17 -48 -14 -60 8 -26 252 -274
282 -286 18 -7 35 -4 68 10 l44 20 10 -39 c18 -66 30 -70 240 -70 210 0 222 3
240 71 6 22 14 39 18 37 54 -29 83 -37 104 -29 30 12 274 260 282 286 3 12 -3
38 -14 60 -21 41 -15 55 23 55 10 0 29 11 42 25 25 24 25 26 25 215 0 189 0
191 -25 215 -13 14 -32 25 -42 25 -38 0 -44 14 -23 55 11 22 17 48 14 60 -8
26 -252 274 -282 286 -21 8 -50 0 -104 -29 -4 -2 -12 15 -18 37 -18 68 -30 71
-240 71 -151 0 -190 -3 -207 -15z m317 -197 c26 -111 64 -129 160 -76 l60 33
67 -68 68 -67 -33 -60 c-53 -96 -35 -134 76 -160 l52 -12 0 -98 0 -98 -52 -12
c-111 -26 -129 -64 -76 -160 l33 -60 -68 -67 -67 -68 -60 33 c-96 53 -134 35
-160 -75 l-12 -53 -98 0 -98 0 -12 53 c-17 71 -24 82 -61 98 -30 12 -37 10
-96 -21 l-64 -34 -66 67 -67 66 34 64 c31 59 33 66 21 96 -16 37 -27 44 -98
61 l-53 12 0 98 0 98 53 12 c71 17 82 24 98 61 12 30 10 37 -21 96 l-34 64 67
67 67 67 60 -34 c92 -50 136 -29 159 74 l12 55 99 0 98 0 12 -52z"/>
<path d="M3180 4144 c-143 -52 -230 -184 -217 -329 11 -116 67 -201 169 -256
57 -31 70 -34 148 -34 79 0 90 3 150 36 231 127 222 456 -15 568 -65 31 -172
38 -235 15z m163 -158 c104 -43 128 -175 47 -256 -66 -66 -156 -67 -221 -1
-124 123 13 325 174 257z"/>
<path d="M3360 2640 l0 -80 80 0 80 0 0 80 0 80 -80 0 -80 0 0 -80z"/>
<path d="M3680 2640 l0 -80 320 0 320 0 0 80 0 80 -320 0 -320 0 0 -80z"/>
<path d="M4480 2640 l0 -80 80 0 80 0 0 80 0 80 -80 0 -80 0 0 -80z"/>
<path d="M2140 2944 c-142 -52 -229 -183 -218 -327 26 -318 443 -407 597 -127
33 60 36 71 36 150 0 78 -3 91 -34 148 -58 106 -144 161 -265 168 -50 3 -84
-1 -116 -12z m163 -158 c103 -43 128 -177 48 -257 -65 -65 -157 -65 -222 0
-124 123 13 325 174 257z"/>
<path d="M480 1440 l0 -80 80 0 80 0 0 80 0 80 -80 0 -80 0 0 -80z"/>
<path d="M800 1440 l0 -80 1200 0 1200 0 0 80 0 80 -1200 0 -1200 0 0 -80z"/>
<path d="M3360 1440 l0 -80 80 0 80 0 0 80 0 80 -80 0 -80 0 0 -80z"/>
</g>
</svg>
