<?xml version="1.0" standalone="no"?>
<!DOCTYPE svg PUBLIC "-//W3C//DTD SVG 20010904//EN"
 "http://www.w3.org/TR/2001/REC-SVG-20010904/DTD/svg10.dtd">
<svg version="1.0" xmlns="http://www.w3.org/2000/svg"
 width="512.000000pt" height="512.000000pt" viewBox="0 0 512.000000 512.000000"
 preserveAspectRatio="xMidYMid meet">

<g transform="translate(0.000000,512.000000) scale(0.100000,-0.100000)"
fill="#4DD0E1" stroke="none">
<path d="M1982 4708 l3 -413 287 -3 288 -2 2 -249 3 -249 298 249 299 249 399
0 399 0 0 415 0 415 -990 0 -990 0 2 -412z m1818 -3 l0 -245 -346 0 -346 0
-186 -155 -187 -156 -5 153 -5 153 -287 3 -288 2 0 245 0 245 825 0 825 0 0
-245z"/>
<path d="M2312 4708 l3 -83 80 0 80 0 3 83 3 82 -86 0 -86 0 3 -82z"/>
<path d="M2642 4708 l3 -83 328 -3 327 -2 0 85 0 85 -330 0 -331 0 3 -82z"/>
<path d="M3470 4705 l0 -85 80 0 80 0 0 85 0 85 -80 0 -80 0 0 -85z"/>
<path d="M1684 3861 c-154 -44 -280 -164 -336 -319 -16 -45 -22 -90 -25 -207
-7 -218 19 -314 122 -440 45 -55 46 -56 43 -123 l-3 -67 -190 -55 c-204 -59
-242 -78 -300 -141 -72 -80 -80 -110 -83 -331 l-4 -198 -164 0 -164 0 0 -245
0 -245 80 0 80 0 0 -660 0 -660 -370 0 -370 0 0 -85 0 -85 2560 0 2560 0 0 85
0 85 -460 0 c-431 0 -460 1 -460 18 0 9 -14 150 -30 312 -16 162 -30 304 -30
316 0 16 10 23 49 32 97 22 181 71 261 151 83 84 122 148 151 249 18 63 19
105 19 649 l0 583 -164 0 -164 0 -4 103 c-3 89 -7 108 -31 149 -14 25 -47 64
-73 87 l-46 40 40 48 c90 109 112 185 112 398 0 127 -4 172 -19 221 -78 256
-349 407 -603 335 -169 -49 -300 -181 -349 -356 -10 -34 -14 -101 -13 -210 1
-173 14 -235 70 -332 35 -59 142 -156 203 -184 l52 -23 -223 -223 -223 -223
-232 0 -233 0 0 28 c0 40 -52 141 -95 186 -51 52 -105 75 -305 132 l-170 48 0
74 c0 71 1 75 38 117 50 57 88 128 107 200 21 84 21 342 -1 416 -81 271 -349
425 -610 350z m267 -178 c136 -59 199 -179 199 -378 0 -205 -59 -318 -199
-383 -82 -38 -193 -38 -272 1 -74 36 -140 108 -168 180 -18 49 -21 79 -21 202
0 120 3 153 20 198 39 103 130 180 240 203 70 15 130 8 201 -23z m1947 15 c81
-20 163 -95 205 -185 20 -43 22 -64 22 -208 0 -151 -1 -163 -26 -215 -36 -78
-80 -124 -150 -159 -139 -69 -293 -42 -394 71 -67 73 -79 115 -83 277 -4 164
4 210 55 288 82 125 212 171 371 131z m-2083 -963 c55 0 115 4 133 8 l32 9 0
-45 c0 -55 -30 -96 -93 -126 -55 -26 -92 -26 -142 0 -63 32 -95 75 -95 127 l0
45 33 -9 c17 -5 77 -9 132 -9z m2120 -40 c18 -17 25 -35 25 -62 0 -36 -12 -50
-307 -345 l-308 -308 -438 0 c-461 0 -484 2 -501 45 -9 24 -7 64 4 85 19 36
61 40 459 40 l385 0 286 285 c285 283 287 285 329 285 31 0 48 -6 66 -25z
m185 -1183 c-21 -87 -89 -157 -176 -181 -24 -7 -166 -11 -381 -11 l-343 0 0
85 0 85 125 0 125 0 0 187 0 188 304 305 c286 287 341 351 348 407 2 10 4
-216 6 -502 2 -343 -1 -535 -8 -563z m-1636 914 c31 -20 66 -72 66 -98 0 -15
-10 -18 -62 -18 -103 -1 -185 -49 -231 -135 -17 -31 -22 -57 -22 -117 l1 -78
-584 0 -584 0 4 178 c5 256 6 258 264 333 93 26 175 49 182 49 7 0 41 -24 76
-54 73 -62 140 -88 224 -87 97 1 173 34 245 109 l38 39 178 -51 c98 -29 190
-60 205 -70z m1974 -613 c-3 -492 -3 -499 -26 -555 -44 -109 -131 -196 -240
-240 -56 -22 -65 -23 -514 -26 l-458 -3 0 85 0 85 383 3 382 3 67 32 c88 41
160 113 201 201 l32 67 3 423 3 422 85 0 85 0 -3 -497z m-1158 -78 l0 -85
-1280 0 -1280 0 0 78 c0 43 3 82 7 85 3 4 579 7 1280 7 l1273 0 0 -85z m-245
-330 l0 -80 -867 -3 -868 -2 0 -80 0 -80 868 -2 867 -3 3 -492 2 -493 -103 0
-102 0 -83 165 -82 165 -710 0 -710 0 -82 -165 -83 -165 -97 0 -98 0 0 495 0
495 125 0 125 0 0 80 0 80 -125 0 -125 0 0 85 0 85 1073 -2 1072 -3 0 -80z
m589 -612 c3 -21 17 -157 31 -303 14 -146 27 -277 30 -292 l5 -28 -245 0 -245
0 0 330 0 330 209 0 209 0 6 -37z m330 0 c3 -21 17 -157 31 -303 14 -146 27
-277 30 -292 l5 -28 -85 0 c-74 0 -85 2 -85 18 0 9 -14 150 -30 312 -16 162
-30 303 -30 313 0 15 10 17 79 17 l79 0 6 -37z m-1344 -543 l40 -80 -690 0
-690 0 40 80 40 80 610 0 610 0 40 -80z"/>
</g>
</svg>
