<?xml version="1.0" standalone="no"?>
<!DOCTYPE svg PUBLIC "-//W3C//DTD SVG 20010904//EN"
 "http://www.w3.org/TR/2001/REC-SVG-20010904/DTD/svg10.dtd">
<svg version="1.0" xmlns="http://www.w3.org/2000/svg"
 width="512.000000pt" height="512.000000pt" viewBox="0 0 512.000000 512.000000"
 preserveAspectRatio="xMidYMid meet">

<g transform="translate(0.000000,512.000000) scale(0.100000,-0.100000)"
fill="#4DD0E1" stroke="none">
<path d="M32 5100 c-11 -11 -24 -35 -27 -52 -3 -18 -4 -1151 -3 -2516 l3
-2484 29 -24 28 -25 1942 4 c1764 3 1949 4 2031 20 288 53 529 180 717 376
387 403 473 973 223 1471 -197 392 -594 656 -1032 686 l-103 7 0 856 0 856
-423 422 -422 423 -1471 0 c-1455 0 -1470 0 -1492 -20z m2848 -499 c0 -225 4
-370 10 -387 21 -54 16 -53 418 -54 l372 0 0 -804 0 -804 -67 -12 c-38 -6
-115 -27 -172 -46 -424 -141 -728 -478 -831 -920 -85 -362 -18 -726 187 -1032
78 -116 207 -244 322 -320 l95 -62 -1527 0 -1527 0 0 2400 0 2400 1360 0 1360
0 0 -359z m435 -21 l260 -260 -268 0 -267 0 0 260 c0 143 3 260 8 260 4 0 124
-117 267 -260z m796 -2214 c427 -108 740 -445 825 -888 24 -126 14 -362 -20
-487 -105 -378 -399 -678 -768 -785 -235 -68 -450 -61 -692 23 -141 50 -299
154 -414 275 -321 338 -401 836 -201 1255 158 332 450 557 813 627 109 21 336
11 457 -20z"/>
<path d="M598 4626 c-41 -31 -41 -101 0 -132 13 -11 131 -13 565 -14 l548 0
24 25 c33 32 33 78 0 110 l-24 25 -548 0 c-434 -1 -552 -3 -565 -14z"/>
<path d="M598 4306 c-27 -20 -39 -62 -27 -93 16 -42 38 -52 112 -53 59 0 71 3
92 25 33 32 33 78 0 110 -21 22 -33 25 -92 25 -40 -1 -75 -6 -85 -14z"/>
<path d="M918 4306 c-27 -20 -39 -62 -27 -93 16 -42 38 -52 112 -53 59 0 71 3
92 25 33 32 33 78 0 110 -21 22 -33 25 -92 25 -40 -1 -75 -6 -85 -14z"/>
<path d="M1238 4306 c-27 -20 -39 -62 -27 -93 16 -42 38 -52 112 -53 59 0 71
3 92 25 16 15 25 36 25 55 0 19 -9 40 -25 55 -21 22 -33 25 -92 25 -40 -1 -75
-6 -85 -14z"/>
<path d="M598 3746 c-41 -31 -41 -101 0 -132 14 -11 268 -13 1325 -14 l1308 0
24 25 c33 32 33 78 0 110 l-24 25 -1308 0 c-1057 -1 -1311 -3 -1325 -14z"/>
<path d="M598 3426 c-41 -31 -41 -101 0 -132 14 -11 268 -13 1325 -14 l1308 0
24 25 c33 32 33 78 0 110 l-24 25 -1308 0 c-1057 -1 -1311 -3 -1325 -14z"/>
<path d="M598 3106 c-41 -31 -41 -101 0 -132 14 -11 268 -13 1325 -14 l1308 0
24 25 c33 32 33 78 0 110 l-24 25 -1308 0 c-1057 -1 -1311 -3 -1325 -14z"/>
<path d="M598 2786 c-41 -31 -41 -101 0 -132 14 -11 268 -13 1325 -14 l1308 0
24 25 c33 32 33 78 0 110 l-24 25 -1308 0 c-1057 -1 -1311 -3 -1325 -14z"/>
<path d="M598 2466 c-27 -20 -39 -62 -27 -93 21 -55 -46 -52 1192 -53 l1148 0
24 25 c16 15 25 36 25 55 0 19 -9 40 -25 55 l-24 25 -1148 0 c-926 -1 -1151
-3 -1165 -14z"/>
<path d="M598 2146 c-27 -20 -39 -62 -27 -93 21 -55 -33 -52 1032 -53 l988 0
24 25 c16 15 25 36 25 55 0 19 -9 40 -25 55 l-24 25 -988 0 c-795 -1 -991 -3
-1005 -14z"/>
<path d="M598 1826 c-27 -20 -39 -62 -27 -93 20 -54 2 -52 592 -53 l548 0 24
25 c33 32 33 78 0 110 l-24 25 -548 0 c-434 -1 -552 -3 -565 -14z"/>
<path d="M1878 1826 c-27 -20 -39 -62 -27 -93 16 -42 38 -52 112 -53 59 0 71
3 92 25 16 15 25 36 25 55 0 19 -9 40 -25 55 -21 22 -33 25 -92 25 -40 -1 -75
-6 -85 -14z"/>
<path d="M2198 1826 c-27 -20 -39 -62 -27 -93 16 -42 38 -52 112 -53 59 0 71
3 92 25 16 15 25 36 25 55 0 19 -9 40 -25 55 -21 22 -33 25 -92 25 -40 -1 -75
-6 -85 -14z"/>
<path d="M598 1506 c-27 -20 -39 -62 -27 -93 21 -55 -23 -52 912 -53 l868 0
24 25 c33 32 33 78 0 110 l-24 25 -868 0 c-696 -1 -871 -3 -885 -14z"/>
<path d="M598 1186 c-27 -20 -39 -62 -27 -93 21 -55 -23 -52 912 -53 l868 0
24 25 c33 32 33 78 0 110 l-24 25 -868 0 c-696 -1 -871 -3 -885 -14z"/>
<path d="M598 626 c-41 -31 -41 -101 0 -132 14 -11 174 -13 805 -14 l788 0 24
25 c33 32 33 78 0 110 l-24 25 -788 0 c-631 -1 -791 -3 -805 -14z"/>
<path d="M3992 1531 c-213 -209 -423 -416 -467 -460 l-79 -81 -146 145 c-159
158 -175 166 -226 122 -19 -17 -27 -33 -27 -56 0 -29 20 -53 184 -217 154
-153 190 -184 214 -184 23 0 61 32 214 182 475 466 813 803 822 819 25 48 -15
109 -72 109 -27 0 -74 -43 -417 -379z"/>
</g>
</svg>
