<?xml version="1.0" standalone="no"?>
<!DOCTYPE svg PUBLIC "-//W3C//DTD SVG 20010904//EN"
 "http://www.w3.org/TR/2001/REC-SVG-20010904/DTD/svg10.dtd">
<svg version="1.0" xmlns="http://www.w3.org/2000/svg"
 width="512.000000pt" height="512.000000pt" viewBox="0 0 512.000000 512.000000"
 preserveAspectRatio="xMidYMid meet">

<g transform="translate(0.000000,512.000000) scale(0.100000,-0.100000)"
fill="#4DD0E1" stroke="none">
<path d="M157 4132 c-16 -17 -17 -141 -17 -1575 l0 -1556 22 -15 c20 -14 264
-16 2398 -16 2134 0 2378 2 2398 16 l22 15 0 1558 c0 1497 -1 1559 -18 1574
-17 16 -198 17 -2404 17 -2298 0 -2386 -1 -2401 -18z m4543 -136 c-69 -64
-1786 -1468 -1821 -1488 -25 -15 -82 -39 -125 -54 -67 -23 -96 -27 -189 -28
-151 0 -280 42 -390 128 -44 34 -1744 1433 -1759 1447 -6 5 875 9 2144 9 1826
0 2152 -2 2140 -14z m-3580 -755 c448 -370 816 -675 818 -679 2 -6 -1456
-1214 -1635 -1355 l-23 -18 0 1371 c0 1097 3 1370 13 1362 6 -5 379 -312 827
-681z m3718 -1365 l-3 -684 -825 679 c-454 374 -825 684 -825 689 0 5 371 315
825 689 l825 679 3 -684 c1 -376 1 -992 0 -1368z m-2622 490 c110 -56 208 -78
344 -78 173 0 325 49 461 148 l45 33 822 -677 822 -677 -1075 -3 c-591 -1
-1559 -1 -2150 0 l-1075 3 822 677 822 677 46 -34 c25 -18 77 -49 116 -69z"/>
</g>
</svg>
