<?xml version="1.0" standalone="no"?>
<!DOCTYPE svg PUBLIC "-//W3C//DTD SVG 20010904//EN"
 "http://www.w3.org/TR/2001/REC-SVG-20010904/DTD/svg10.dtd">
<svg version="1.0" xmlns="http://www.w3.org/2000/svg"
 width="512.000000pt" height="512.000000pt" viewBox="0 0 512.000000 512.000000"
 preserveAspectRatio="xMidYMid meet">

<g transform="translate(0.000000,512.000000) scale(0.100000,-0.100000)"
fill="#4DD0E1" stroke="none">
<path d="M2481 4980 c-52 -12 -112 -60 -138 -110 -23 -43 -24 -53 -21 -201 3
-150 4 -157 30 -197 15 -22 49 -54 75 -69 46 -27 53 -28 211 -31 l163 -4 -3
-111 -3 -111 -121 -27 c-67 -15 -163 -41 -215 -59 -100 -34 -322 -137 -403
-187 l-49 -31 -60 70 -59 69 61 55 c83 76 83 97 -1 196 -145 172 -166 184
-229 131 -249 -207 -556 -480 -565 -501 -8 -17 -9 -35 -3 -50 15 -38 188 -231
214 -238 28 -7 55 7 119 60 l48 41 58 -64 58 -64 -67 -77 c-36 -42 -97 -120
-135 -173 l-68 -97 -257 0 c-237 0 -259 -1 -274 -18 -24 -27 -22 -85 4 -108
19 -17 41 -19 235 -22 l214 -3 -24 -47 c-12 -26 -36 -80 -51 -119 l-28 -73
-394 0 -394 0 -24 -25 c-32 -31 -33 -74 -2 -103 23 -22 27 -22 395 -22 205 0
372 -2 372 -4 0 -3 -7 -35 -16 -73 -8 -37 -21 -108 -28 -158 l-12 -90 -524 -3
c-522 -2 -524 -2 -547 -24 -38 -35 -29 -89 18 -113 23 -13 110 -15 537 -15
l509 0 6 -143 c3 -78 9 -150 12 -160 7 -16 -15 -17 -378 -17 -374 0 -385 -1
-411 -21 -36 -28 -36 -80 0 -108 26 -20 37 -21 424 -21 l397 0 12 -56 c7 -32
22 -82 32 -112 10 -30 19 -61 19 -69 0 -10 -40 -13 -203 -13 -188 0 -205 -2
-221 -19 -25 -27 -24 -78 3 -104 21 -21 30 -22 256 -25 l235 -3 36 -72 c88
-175 201 -332 348 -485 538 -559 1342 -759 2082 -517 191 62 502 227 554 292
25 32 25 64 1 94 -32 40 -74 31 -178 -38 -451 -298 -1051 -378 -1572 -211
-485 155 -876 491 -1106 949 -261 518 -261 1140 0 1658 283 563 807 936 1434
1021 116 16 387 13 503 -4 290 -45 572 -158 808 -323 148 -104 367 -330 467
-480 174 -263 272 -527 308 -833 32 -271 5 -540 -82 -800 -84 -253 -202 -450
-410 -689 -70 -80 -77 -107 -38 -146 51 -51 90 -28 222 129 447 533 588 1261
372 1920 -86 263 -227 506 -422 730 l-49 55 49 56 c26 30 52 55 56 55 5 0 32
-20 60 -45 57 -50 81 -60 114 -48 23 9 188 193 205 230 22 47 4 67 -299 328
-312 269 -325 277 -371 238 -34 -30 -174 -195 -184 -219 -17 -37 -2 -69 57
-118 30 -26 55 -51 55 -56 0 -4 -23 -35 -51 -69 l-52 -61 -41 26 c-157 98
-457 214 -644 250 l-92 18 0 113 0 113 143 0 c167 0 204 9 259 58 66 60 78 96
78 250 0 151 -9 185 -68 245 -66 67 -64 67 -721 66 -322 -1 -601 -5 -620 -9z
m139 -300 l0 -160 -49 0 c-34 0 -56 6 -75 21 -25 20 -26 23 -26 138 0 100 3
120 18 133 24 21 40 26 90 27 l42 1 0 -160z m270 0 l0 -160 -60 0 -60 0 0 160
0 160 60 0 60 0 0 -160z m270 0 l0 -160 -60 0 -60 0 0 153 c0 85 3 157 7 160
3 4 30 7 60 7 l53 0 0 -160z m278 -2 l3 -158 -61 0 -60 0 0 160 0 161 58 -3
57 -3 3 -157z m284 132 c15 -18 18 -40 18 -132 0 -102 -1 -110 -25 -133 -19
-20 -34 -25 -75 -25 l-50 0 0 161 0 161 57 -4 c43 -4 61 -10 75 -28z m-462
-543 l0 -102 -155 0 -155 0 0 102 0 103 155 0 155 0 0 -103z m1398 -266 l203
-175 -35 -34 -34 -35 -220 189 -219 189 31 36 c29 35 31 36 51 21 11 -10 112
-95 223 -191z m-2853 167 l26 -31 -23 -23 c-49 -48 -412 -354 -419 -354 -4 0
-20 16 -35 35 l-26 35 28 24 c16 13 112 96 214 184 102 88 190 161 197 161 6
1 23 -13 38 -31z m24 -350 l53 -62 -38 -34 c-22 -18 -51 -41 -65 -52 l-26 -19
-52 62 -52 62 58 52 c32 29 61 53 64 53 3 0 30 -28 58 -62z m2659 1 c23 -20
42 -39 42 -43 0 -4 -21 -32 -46 -62 l-46 -53 -56 47 c-32 26 -59 51 -61 55 -2
5 18 33 44 63 52 60 45 61 123 -7z"/>
<path d="M2945 3730 c-116 -13 -236 -39 -263 -56 -49 -32 -48 -103 3 -126 21
-9 45 -8 118 6 51 10 122 20 159 23 l68 6 0 -116 c0 -113 1 -116 26 -136 35
-28 69 -26 99 4 24 23 25 31 25 136 l0 112 80 -7 c175 -14 411 -93 579 -193
91 -55 220 -153 221 -168 0 -6 -34 -44 -75 -85 -62 -62 -75 -80 -75 -107 0
-22 8 -38 26 -52 46 -36 69 -28 156 57 l80 77 40 -45 c93 -104 202 -299 253
-453 29 -88 60 -231 70 -324 l6 -63 -111 0 c-97 0 -112 -2 -130 -20 -30 -30
-27 -83 6 -109 23 -18 41 -21 130 -21 l103 0 -5 -52 c-10 -89 -44 -249 -70
-328 -52 -154 -160 -346 -252 -450 l-40 -45 -75 73 c-59 57 -81 72 -105 72
-42 0 -73 -28 -74 -68 -1 -29 10 -44 73 -108 l73 -74 -29 -30 c-88 -92 -353
-237 -520 -285 -99 -29 -239 -55 -291 -55 l-34 0 0 99 c0 90 -2 103 -23 127
-31 35 -82 38 -109 5 -15 -19 -18 -41 -18 -127 l0 -104 -47 0 c-72 0 -215 28
-323 62 -172 55 -319 133 -463 246 l-57 45 80 82 c44 46 80 90 80 98 0 50 -51
94 -94 81 -11 -3 -55 -40 -97 -81 l-77 -75 -76 98 c-157 205 -262 464 -292
726 l-6 56 117 4 c109 3 118 5 136 27 26 32 24 73 -4 99 -21 20 -34 22 -137
22 l-113 0 7 78 c15 165 66 341 143 497 46 92 130 223 183 285 l30 34 73 -71
c39 -39 82 -76 94 -82 48 -24 103 14 103 71 0 22 -19 48 -80 112 l-80 83 76
61 c42 33 114 82 159 108 80 47 105 74 105 112 -1 24 -22 50 -52 61 -33 12
-97 -17 -216 -98 -342 -235 -575 -584 -663 -993 -14 -65 -22 -148 -26 -273 -5
-154 -2 -198 16 -304 101 -593 520 -1075 1089 -1255 157 -49 293 -69 472 -70
236 0 421 37 622 124 568 245 938 780 965 1395 34 785 -524 1485 -1296 1624
-131 24 -335 33 -446 21z"/>
<path d="M3052 2817 c-21 -23 -22 -31 -22 -257 l0 -233 -39 -33 c-86 -74 -96
-190 -23 -267 50 -53 111 -70 187 -53 29 6 42 -6 290 -254 233 -234 263 -260
292 -260 43 0 73 30 73 72 0 30 -27 60 -262 295 l-262 262 -1 60 c-1 46 -6 67
-28 100 -15 23 -39 47 -52 53 l-25 11 0 239 0 239 -25 24 c-31 32 -74 33 -103
2z m77 -651 c17 -20 2 -46 -25 -46 -26 0 -40 20 -30 45 7 19 40 20 55 1z"/>
</g>
</svg>
