<?xml version="1.0" standalone="no"?>
<!DOCTYPE svg PUBLIC "-//W3C//DTD SVG 20010904//EN"
 "http://www.w3.org/TR/2001/REC-SVG-20010904/DTD/svg10.dtd">
<svg version="1.0" xmlns="http://www.w3.org/2000/svg"
 width="512.000000pt" height="512.000000pt" viewBox="0 0 512.000000 512.000000"
 preserveAspectRatio="xMidYMid meet">

<g transform="translate(0.000000,512.000000) scale(0.100000,-0.100000)"
fill="#4DD0E1" stroke="none">
<path d="M2345 5109 c-316 -33 -666 -158 -929 -334 -585 -390 -936 -1043 -936
-1742 0 -58 5 -124 12 -147 13 -45 105 -146 132 -146 14 0 16 -31 16 -260 0
-229 -2 -260 -16 -260 -27 0 -119 -101 -132 -146 -17 -57 -17 -571 0 -628 16
-55 99 -138 154 -154 24 -7 101 -12 183 -12 112 0 141 -3 141 -14 0 -7 16 -45
35 -83 43 -86 103 -144 193 -186 63 -30 75 -32 205 -35 177 -5 215 4 282 72
32 32 55 66 63 92 17 59 17 1209 0 1268 -8 26 -31 60 -63 92 -67 68 -105 77
-282 72 -130 -3 -142 -5 -205 -35 -90 -42 -150 -100 -193 -186 -19 -38 -35
-76 -35 -83 0 -11 -20 -14 -85 -14 l-85 0 0 240 0 240 58 0 c87 0 144 23 195
80 55 61 67 103 67 226 0 592 343 1111 885 1340 317 135 680 149 1012 39 188
-62 403 -194 551 -338 96 -93 214 -257 276 -381 101 -203 143 -369 152 -601 7
-197 15 -227 78 -290 57 -57 103 -75 190 -75 l56 0 0 -240 0 -240 -85 0 c-65
0 -85 3 -85 14 0 7 -16 45 -35 83 -43 86 -103 144 -193 186 -63 30 -75 32
-205 35 -177 5 -215 -4 -282 -72 -32 -32 -55 -66 -63 -92 -17 -59 -17 -1209 0
-1268 8 -26 31 -60 63 -92 67 -68 105 -77 282 -72 130 3 142 5 205 35 90 42
150 100 193 186 19 38 35 76 35 83 0 11 20 14 85 14 l85 0 0 -207 c0 -234 -10
-298 -63 -397 -40 -78 -135 -173 -213 -213 -95 -50 -166 -63 -359 -63 l-170 0
-34 65 c-37 72 -68 103 -145 143 -44 23 -63 27 -136 26 -100 0 -161 -24 -225
-89 -65 -65 -89 -125 -89 -225 0 -73 4 -92 26 -136 40 -75 70 -107 140 -145
57 -30 71 -33 148 -34 73 0 92 4 136 27 77 40 108 71 145 142 l33 64 206 4
c189 4 211 7 285 31 108 36 195 89 274 168 79 79 132 166 168 274 26 76 27 91
31 333 3 214 6 252 19 252 26 0 118 102 131 146 17 57 17 571 0 628 -13 45
-105 146 -132 146 -14 0 -16 31 -16 260 0 229 2 260 16 260 27 0 119 101 132
146 7 23 12 89 12 147 0 449 -149 897 -418 1256 -71 95 -243 273 -343 357
-416 347 -989 520 -1534 463z m520 -174 c528 -92 957 -362 1267 -796 80 -111
205 -357 247 -485 65 -200 101 -423 101 -626 0 -92 -2 -101 -25 -123 -23 -24
-31 -25 -135 -25 -157 0 -155 -2 -163 200 -11 292 -84 546 -222 776 -242 400
-619 664 -1080 756 -158 32 -432 32 -592 0 -649 -130 -1148 -627 -1273 -1269
-13 -65 -24 -170 -27 -263 -8 -202 -6 -200 -163 -200 -104 0 -112 1 -135 25
-23 22 -25 31 -25 127 1 752 426 1421 1105 1744 188 89 367 141 585 170 131
17 410 11 535 -11z m-1290 -2560 l25 -24 0 -591 0 -591 -25 -24 c-23 -24 -31
-25 -136 -25 -61 0 -130 5 -153 12 -55 16 -138 99 -154 154 -17 58 -17 890 0
948 15 51 99 137 148 153 19 6 88 11 153 12 113 1 119 0 142 -24z m2259 13
c55 -16 138 -99 154 -154 17 -58 17 -890 0 -948 -16 -55 -99 -138 -154 -154
-23 -7 -92 -12 -153 -12 -105 0 -113 1 -136 25 l-25 24 0 591 0 591 25 24 c23
24 31 25 136 25 61 0 130 -5 153 -12z m-2874 -628 l0 -320 -135 0 c-131 0
-137 1 -160 25 l-25 24 0 271 0 271 25 24 c23 24 29 25 160 25 l135 0 0 -320z
m3495 295 l25 -24 0 -271 0 -271 -25 -24 c-23 -24 -29 -25 -160 -25 l-135 0 0
320 0 320 135 0 c131 0 137 -1 160 -25z m-1192 -1589 c103 -43 128 -177 48
-257 -65 -65 -157 -65 -222 0 -124 123 13 325 174 257z"/>
</g>
</svg>
